<?xml version="1.0" encoding="utf-8"?>
<!-- Designed by Vexels.com - 2016 All Rights Reserved - https://vexels.com/terms-and-conditions/  -->

<svg version="1.0" id="Capa_1" xmlns="http://www.w3.org/2000/svg" xmlns:xlink="http://www.w3.org/1999/xlink" x="0px" y="0px"
	 width="1200px" height="1200px" viewBox="0 0 1200 1200" enable-background="new 0 0 1200 1200" xml:space="preserve">
<g>
	<path fill-rule="evenodd" clip-rule="evenodd" fill="#005439" d="M1099.197,599.975c0-275.682-223.502-499.172-499.21-499.172
		c-275.694,0-499.184,223.49-499.184,499.172c0,275.707,223.49,499.222,499.184,499.222
		C875.695,1099.197,1099.197,875.682,1099.197,599.975z"/>
	<path fill-rule="evenodd" clip-rule="evenodd" fill="#ECB032" d="M162.582,367.069c40.853-47.509,63.837-96.138,132.419-141.969
		c18.411-24.057,42.282-45.525,69.185-65.476C271.831,210.275,198.468,285.757,162.582,367.069L162.582,367.069z"/>
	<path fill-rule="evenodd" clip-rule="evenodd" fill="#ECB032" d="M795.134,139.03c-59.746-25.682-124.63-48.309-256.9-31.03
		c28.837,1.959,55.95,5.151,76.887,12.866c50.811-14.492,114.193-0.074,181.578,23.538L795.134,139.03L795.134,139.03z"/>
	<path fill-rule="evenodd" clip-rule="evenodd" fill="#005439" d="M437.142,827.335c8.849-76.998,34.408-128.142,43.847-193.409
		l-15.552-14.492l-19.891-17.45c-35.405-14.986-89.692-77.356-119.885-100.524c-52.105,24.523-88.694,67.275-129.35,105.873
		c5.311,74.078,24.87,133.109,62.74,202.159C322.728,830.49,374.403,839.659,437.142,827.335L437.142,827.335z"/>
	<path fill-rule="evenodd" clip-rule="evenodd" fill="#ECB032" d="M438.905,828.555c23.822,34.21,60.695,67.62,102.102,98.331
		l60.017,35.665l21.886-2.157c34.408-6.027,64.269-15.405,91.861-26.337c27.31-6.938,53.423-16.871,77.615-31.549l16.022-6.297
		l0.59-13.026l24.364-77.628l14.246-59.363l3.956-32.312l-1.036-18.683l-100.561-82.495l-57.602-46.09l-189.391,61.311
		l-16.587,6.346c-15.381,42.824-26.545,89.766-35.751,138.556L438.905,828.555L438.905,828.555z"/>
	<path fill-rule="evenodd" clip-rule="evenodd" fill="#ECB032" d="M333.659,491.97l73.782,67.669l33.385,26.645l51.92,34.112
		l66.548-22.368c31.82-8.01,61.545-18.004,90.739-28.554l43.368-16.193l45.4-192.841c-47.445-53.19-100.216-94.967-155.106-127.391
		c-69.382,7.444-134.341,28.665-193.988,59.241l-28.345,47.964C346.945,396.178,335.311,449.195,333.659,491.97L333.659,491.97z"/>
	<path fill-rule="evenodd" clip-rule="evenodd" fill="#005439" d="M696.927,552.578c53.127,39.682,104.024,89.002,154.589,139.726
		c58.205-32.03,102.533-71.736,141.352-114.437c-8.811-82.939-32.534-150.547-71.107-202.812
		c-59.66-16.933-119.073-18.758-178.374-13.705C729.301,426.444,711.025,487.509,696.927,552.578L696.927,552.578z"/>
	<path fill-rule="evenodd" clip-rule="evenodd" fill="#ECB032" d="M819.202,887.673l4.042,9.685l78.491,59.425
		c29.848-15.749,64.637-34.864,96.925-61.039l36.38-58.267l26.459-55.05l12.583-130.951c-26.583-30.822-51.44-49.296-75.089-59.327
		c-42.826,39.56-86.71,77.615-134.896,109.435C862.951,763.4,846.364,825.45,819.202,887.673L819.202,887.673z"/>
	<path fill-rule="evenodd" clip-rule="evenodd" fill="#005439" d="M805.905,902.178c-57.181,29.848-117.038,51.328-179.544,64.453
		l-21.222,11.658c-4.177,28.37-12.102,56.776-21.319,85.243c59.376,19.62,117.322,18.264,171.103-0.764
		c54.508-14.69,101.769-51.501,135.573-102.768L805.905,902.178L805.905,902.178z"/>
	<path fill-rule="evenodd" clip-rule="evenodd" fill="#ECB032" d="M574.342,1060.586c9.02-32.263,15.121-61.114,18.756-93.34
		c-58.081-31.166-112.28-72.697-161.822-130.989c-51.489,8.368-97.038,3.229-167.48-16.513
		c-13.235,21.984-16.464,59.855-13.235,99.599c30.463,51.538,82.322,94.992,141.292,128.093
		C470.515,1078.259,532.429,1083.151,574.342,1060.586L574.342,1060.586z"/>
	<path fill-rule="evenodd" clip-rule="evenodd" fill="#ECB032" d="M187.131,608.516c42.677-50.232,87.005-91.369,133.996-117.927
		c1.109-61.606,17.352-123.459,46.103-185.533l-17.008-28.96c-18.263-11.572-33.705-24.044-46.695-37.046l-25.658-1.651
		c-44.316,27.469-80.584,74.928-114.561,127.993c-30.414,66.179-37.636,126.171-36.478,183.895
		C147.054,577.927,167.141,596.155,187.131,608.516L187.131,608.516z"/>
	<path fill-rule="evenodd" clip-rule="evenodd" fill="#ECB032" d="M596.007,227.108c63.455,37.612,109.619,79.526,146.073,123.841
		c61.52-5.681,123.188-3.488,185.103,15.922c12.915-35.713,19.951-70.023,14.099-101.288
		c-21.74-46.128-70.628-83.234-131.839-116.213c-64.466-29.479-127.415-34.975-189.12-20.594
		C605.41,166.562,596.414,200.009,596.007,227.108L596.007,227.108z"/>
	<path fill-rule="evenodd" clip-rule="evenodd" fill="#005439" d="M306.141,231.878l10.215,10.598
		c26.04,16.847,45.339,34.716,60.671,53.509c57.354-35.664,123.78-59.264,201.271-68.347c6.68-31.696,15.578-63.405,29.454-95.225
		C513.919,89.785,365.603,141.717,306.141,231.878L306.141,231.878z"/>
	<path fill-rule="evenodd" clip-rule="evenodd" fill="#ECB032" d="M998.931,577.953c28.936,15.43,54.594,36.491,77.023,63.172
		c12.373-9.983,19.04-28.764,20.015-56.32c-4.018-97.136-28.912-193.964-99.748-290.027l-17.771-13.999l-7.74,0.591l-20.827-10.942
		c0.9,36.046-6.408,75.976-17.598,104.69C972.657,435.158,991.76,504.059,998.931,577.953L998.931,577.953z"/>
	<path fill-rule="evenodd" clip-rule="evenodd" fill="#ECB032" d="M213.836,896.336c10.895,9.576,21.74,16.07,32.56,19.472
		c-4.018-35.456-5.324-69.617,3.057-99.169c-38.254-58.168-64.256-137.484-59.881-195.726
		c-29.602-20.556-55.148-40.656-66.389-69.691c-6.876,4.461-10.585,11.967-11.202,22.43
		C110.243,695.965,148.385,801.752,213.836,896.336L213.836,896.336z"/>
	<path fill-rule="evenodd" clip-rule="evenodd" fill="#ECB032" d="M407.787,1056.211c101.239,46.128,205.424,50.824,311.728,23.638
		c-59.511,8.922-109.62,8.922-142.943-6.938C543.077,1087.945,483.948,1078.16,407.787,1056.211L407.787,1056.211z"/>
	<path fill-rule="evenodd" clip-rule="evenodd" fill="#ECB032" d="M901.735,965.299c-19.115,33.324-58.525,62.161-105.282,90.407
		c90.025-41.95,161.86-96.359,202.626-159.37C974.654,919.221,944.51,942.168,901.735,965.299L901.735,965.299z"/>
	<path fill-rule="evenodd" clip-rule="evenodd" fill="#005439" d="M1067.032,769.87c18.19-40.039,31.918-86.377,29.429-178.053
		c-0.394,29.257-5.594,46.893-17.968,62.839C1083.226,700.08,1075.967,736.041,1067.032,769.87L1067.032,769.87z"/>
	<path fill-rule="evenodd" clip-rule="evenodd" fill="#AFD248" d="M215.044,908.351c40.323,45.006,74.017,74.928,103.15,94.499
		c-30.366-23.809-59.327-49.492-81.757-84.233L215.044,908.351L215.044,908.351z"/>
</g>
</svg>
