<?xml version="1.0"?>
<svg xmlns:rdf="http://www.w3.org/1999/02/22-rdf-syntax-ns#" xmlns="http://www.w3.org/2000/svg" xmlns:cc="http://web.resource.org/cc/" xmlns:dc="http://purl.org/dc/elements/1.1/" xmlns:svg="http://www.w3.org/2000/svg" id="svg69498" viewBox="0 0 213.12 172.52" version="1.0">
  <g id="layer1" transform="translate(-6.9193 -395.32)">
    <path id="path3295" stroke="#000" stroke-width="4.468" fill="#7137c8" d="m64.088 397.56c-0.836 0.02-1.681 0.25-2.46 0.7l-49.875 28.8c-2.4921 1.44-3.3373 4.59-1.8986 7.09l16.991 29.43c1.438 2.49 4.605 3.34 7.096 1.9l26.066-15.05v109.98c0 2.88 2.321 5.2 5.199 5.2h96.294c2.87 0 5.19-2.32 5.19-5.2v-110.13l26.33 15.2c2.49 1.44 5.65 0.59 7.09-1.9l16.99-29.43c1.44-2.5 0.6-5.65-1.9-7.09l-49.86-28.8c-1.02-0.58-2.14-0.79-3.22-0.66-0.2-0.03-0.41-0.04-0.62-0.04h-27.59c-0.41 3.27-9.41 5.89-20.44 5.89-11.02 0-20.016-2.62-20.425-5.89h-27.839c-0.168 0-0.334 0.01-0.497 0.03-0.207-0.02-0.411-0.04-0.621-0.03z"/>
  </g>
  <metadata>
    <rdf:RDF>
      <cc:Work>
        <dc:format>image/svg+xml</dc:format>
        <dc:type rdf:resource="http://purl.org/dc/dcmitype/StillImage"/>
        <cc:license rdf:resource="http://creativecommons.org/licenses/publicdomain/"/>
        <dc:publisher>
          <cc:Agent rdf:about="http://openclipart.org/">
            <dc:title>Openclipart</dc:title>
          </cc:Agent>
        </dc:publisher>
        <dc:title>purple t-shirt</dc:title>
        <dc:date>2007-04-28T19:27:06</dc:date>
        <dc:description>a basic t-shirt design that could be used for putting your own design on.</dc:description>
        <dc:source>http://openclipart.org/detail/4174/purple-t-shirt-by-ryanlerch</dc:source>
        <dc:creator>
          <cc:Agent>
            <dc:title>ryanlerch</dc:title>
          </cc:Agent>
        </dc:creator>
        <dc:subject>
          <rdf:Bag>
            <rdf:li>apparel</rdf:li>
            <rdf:li>clip art</rdf:li>
            <rdf:li>clipart</rdf:li>
            <rdf:li>clothing</rdf:li>
            <rdf:li>design</rdf:li>
            <rdf:li>image</rdf:li>
            <rdf:li>media</rdf:li>
            <rdf:li>public domain</rdf:li>
            <rdf:li>remix</rdf:li>
            <rdf:li>svg</rdf:li>
            <rdf:li>tshirt</rdf:li>
            <rdf:li>web store</rdf:li>
          </rdf:Bag>
        </dc:subject>
      </cc:Work>
      <cc:License rdf:about="http://creativecommons.org/licenses/publicdomain/">
        <cc:permits rdf:resource="http://creativecommons.org/ns#Reproduction"/>
        <cc:permits rdf:resource="http://creativecommons.org/ns#Distribution"/>
        <cc:permits rdf:resource="http://creativecommons.org/ns#DerivativeWorks"/>
      </cc:License>
    </rdf:RDF>
  </metadata>
</svg>
